<svg width="100" height="100" viewBox="0 0 100 100" fill="none" xmlns="http://www.w3.org/2000/svg">
<rect width="100" height="100" rx="27" fill="url(#paint0_linear_602_1498)"/>
<path d="M42.1042 74.7217C36.9146 75.5497 33.335 77.3015 33.335 79.3279C33.335 82.1561 40.3012 84.4439 48.8906 84.4439C57.4799 84.4439 64.4462 82.1517 64.4462 79.3279C64.4462 77.3015 60.8709 75.554 55.6813 74.7217L55.6726 74.8611C59.1074 75.5932 61.3886 76.8744 61.3886 78.3212C61.3886 80.5916 55.791 82.4306 48.8906 82.4306C41.9857 82.4306 36.3926 80.5916 36.3926 78.3212C36.3926 76.8744 38.6693 75.5976 42.113 74.8655L42.1042 74.7217Z" fill="white"/>
<path d="M70.1423 43.9336C72.0467 61.1088 53.6307 78.6107 48.8698 78.6107C44.7408 78.6107 26.0089 62.4074 27.5973 43.9336C28.6243 31.987 37.1233 22.2217 48.8698 22.2217C60.6162 22.2217 68.8242 32.0209 70.1423 43.9336Z" stroke="white" stroke-width="3" stroke-miterlimit="10"/>
<path d="M48.8913 53.3334C55.3347 53.3334 60.558 48.11 60.558 41.6667C60.558 35.2234 55.3347 30 48.8913 30C42.448 30 37.2246 35.2234 37.2246 41.6667C37.2246 48.11 42.448 53.3334 48.8913 53.3334Z" fill="white"/>
<defs>
<linearGradient id="paint0_linear_602_1498" x1="85.5556" y1="83.3333" x2="15.5556" y2="13.3333" gradientUnits="userSpaceOnUse">
<stop offset="0.0364583" stop-color="#F02C65" stop-opacity="0.994303"/>
<stop offset="1" stop-color="#F09D9F"/>
</linearGradient>
</defs>
</svg>
